<svg xmlns="http://www.w3.org/2000/svg" style="display: none;">
	<symbol id="telegram" viewBox="0 0 32 32" fill="none" xmlns="http://www.w3.org/2000/svg">
		<g clip-path="url(#clip0_952_4104)">
			<path d="M2.51111e-05 16.0012C2.51111e-05 7.15042 7.17844 0.00585938 16.017 0.00585938C24.7412 0.00585938 31.9784 7.21942 31.9969 15.7973C32.0217 24.8237 24.8865 32.0498 15.8161 32.0059C7.10737 31.9588 -0.0154323 24.7515 2.51111e-05 16.0012ZM1.70653 16.0012C1.70653 23.842 8.09044 30.2683 15.949 30.2809C23.8076 30.2934 30.2811 23.9141 30.2873 16.1047C30.2886 14.2091 29.9202 12.3321 29.2032 10.5817C28.4862 8.83132 27.4349 7.24215 26.1099 5.90576C24.7849 4.56938 23.2123 3.5122 21.4827 2.79513C19.7531 2.07807 17.9008 1.71529 16.0325 1.72771C8.10899 1.71202 1.71581 8.09132 1.70653 16.0012Z" fill="currentColor" />
			<path d="M24.0023 10.8854C23.5478 13.7803 23.0995 16.6782 22.6358 19.5699C22.4689 20.6049 22.2803 21.6336 22.0763 22.6592C21.8104 23.9733 21.0252 24.3654 19.9122 23.6534C18.2088 22.5494 16.5425 21.3827 14.8824 20.2035C14.1713 19.7017 14.1466 19.2375 14.7865 18.6008C16.122 17.2616 17.4916 15.9537 18.8456 14.6333C19.104 14.3922 19.3457 14.1334 19.569 13.8587C19.6618 13.7395 19.6494 13.545 19.6835 13.3663C19.5116 13.3613 19.3396 13.3739 19.1703 13.4039C19.0379 13.4611 18.9149 13.5383 18.8054 13.6328C16.8609 14.9407 14.8947 16.2203 12.9811 17.5721C11.9238 18.3217 10.8665 18.513 9.65774 18.0519C8.96524 17.7854 8.22329 17.6442 7.53079 17.3839C7.40493 17.3312 7.29207 17.2511 7.20017 17.1492C7.10827 17.0473 7.03961 16.9261 6.99906 16.7943C6.97124 16.6218 7.24019 16.3144 7.45041 16.2078C8.27893 15.7906 9.13217 15.408 9.98851 15.0442C13.8529 13.4049 17.7214 11.7709 21.594 10.1421C21.9371 9.99818 22.2919 9.88484 22.6544 9.80339C23.5756 9.60266 23.9652 9.94452 24.0023 10.8854Z" fill="currentColor" />
		</g>
		<defs>
			<clipPath id="clip0_952_4104">
				<rect width="32" height="32" fill="currentColor" />
			</clipPath>
		</defs>
	</symbol>
	<symbol id="whatsapp" viewBox="0 0 33 32" fill="none" xmlns="http://www.w3.org/2000/svg">
		<g clip-path="url(#clip0_884_1719)">
			<path d="M16.5337 9.28808e-06C25.3511 9.28808e-06 32.5182 7.21145 32.5089 16.0408C32.4997 24.8701 25.2893 32.0314 16.4564 32C7.6235 31.9687 0.46878 24.7603 0.508957 15.9937C0.539863 7.1268 7.6884 -0.00939694 16.5337 9.28808e-06ZM16.5337 30.2661C24.3931 30.2661 30.7967 23.8981 30.8122 16.047C30.8122 8.14895 24.4549 1.75271 16.5461 1.7339C8.63722 1.71509 2.22112 8.11759 2.22112 15.9969C2.22112 23.8762 8.59392 30.2567 16.5151 30.2661H16.5337Z" fill="currentColor" />
			<path d="M16.5156 30.2667C8.59445 30.2667 2.20622 23.8892 2.20313 15.9974C2.20004 8.10557 8.63464 1.7156 16.528 1.73442C24.4214 1.75323 30.8097 8.14946 30.7942 16.0476C30.7787 23.8986 24.375 30.2761 16.5156 30.2667ZM7.82799 24.8581C9.3022 24.3815 10.6095 23.9676 11.923 23.5224C12.2892 23.4076 12.6832 23.4242 13.0387 23.5694C14.0741 23.883 15.1311 24.2874 16.1973 24.3595C18.0683 24.4623 19.9203 23.9347 21.465 22.8589C23.0098 21.7831 24.1607 20.2194 24.7386 18.4111C25.3164 16.6029 25.2889 14.6516 24.6602 12.8609C24.0315 11.0702 22.8369 9.54057 21.2624 8.51008C19.6879 7.47959 17.8218 7.00604 15.9545 7.16314C14.0872 7.32024 12.3235 8.09916 10.9378 9.37869C9.55211 10.6582 8.62225 12.3666 8.2929 14.2379C7.96355 16.1092 8.25321 18.0384 9.11678 19.7254C9.22189 19.9233 9.28048 20.1431 9.28799 20.3677C9.29549 20.5924 9.25172 20.8157 9.16005 21.0203C8.70574 22.2306 8.30703 23.4628 7.82799 24.8581Z" fill="none" />
			<path d="M7.82812 24.8573C8.30717 23.4621 8.70587 22.2298 9.1571 21.0196C9.24876 20.8149 9.29253 20.5916 9.28503 20.367C9.27752 20.1423 9.21893 19.9225 9.11382 19.7246C8.24589 18.0344 7.95332 16.1004 8.28168 14.2239C8.61003 12.3474 9.54086 10.6338 10.9292 9.34991C12.3176 8.06602 14.0855 7.28398 15.9576 7.1256C17.8297 6.96721 19.7008 7.44136 21.2796 8.47421C22.8584 9.50706 24.0562 11.0406 24.6864 12.836C25.3166 14.6314 25.3438 16.5878 24.7638 18.4006C24.1839 20.2133 23.0293 21.7806 21.4799 22.8582C19.9304 23.9359 18.0732 24.4635 16.1975 24.3588C15.1312 24.2867 14.0742 23.8947 13.0389 23.5687C12.6833 23.4235 12.2894 23.4069 11.9232 23.5216C10.6189 23.9669 9.30234 24.3807 7.82812 24.8573Z" fill="currentColor" />
			<path d="M12.516 13.7989C12.5048 13.4873 12.5616 13.1771 12.6824 12.8904C12.8031 12.6036 12.9848 12.3475 13.2145 12.1403C13.7801 11.6198 14.4507 11.7609 14.7598 12.4538C14.868 12.7015 14.9576 12.9587 15.0689 13.2032C15.3285 13.7425 15.3779 14.2285 14.8773 14.6737C14.5682 14.9622 14.6176 15.3008 14.8556 15.63C15.4633 16.5088 16.2754 17.2217 17.2199 17.7057C17.6928 17.9314 18.0698 17.9063 18.3233 17.4235C18.6725 16.7588 19.133 16.7682 19.6924 17.1099C19.8717 17.2129 20.0564 17.3061 20.2456 17.389C21.1264 17.8311 21.1913 18.6776 20.3785 19.311C20.0927 19.5377 19.7577 19.6921 19.4014 19.7613C19.0451 19.8306 18.6776 19.8127 18.3295 19.7092C17.1136 19.3865 15.9961 18.7615 15.0781 17.8907C14.0702 16.9946 13.2612 15.8917 12.7046 14.6549C12.5937 14.3827 12.53 14.0931 12.516 13.7989Z" fill="black" />
		</g>
		<defs>
			<clipPath id="clip0_884_1719">
				<rect width="32" height="32" fill="none" transform="translate(0.5)" />
			</clipPath>
		</defs>
	</symbol>
	<symbol id="phone" viewBox="0 0 33 32" fill="none" xmlns="http://www.w3.org/2000/svg">
		<g clip-path="url(#clip0_884_1731)">
			<path d="M16.5249 9.28808e-06C25.3424 9.28808e-06 32.5095 7.21145 32.5002 16.0408C32.4909 24.8701 25.2805 32.0314 16.4476 32C7.61471 31.9687 0.459991 24.7635 0.500168 15.9937C0.543437 7.1268 7.68888 -0.00939694 16.5249 9.28808e-06ZM16.5249 30.2661C24.3843 30.2661 30.791 23.8981 30.8034 16.047C30.8158 8.19597 24.4368 1.7433 16.528 1.7433C8.61915 1.7433 2.20309 8.12699 2.20618 16.0063C2.20927 23.8856 8.59442 30.2567 16.5156 30.2755L16.5249 30.2661Z" fill="currentColor" />
			<path d="M6.45901 12.642C6.38391 11.955 6.45848 11.2597 6.67745 10.6052C6.89641 9.95075 7.2544 9.35305 7.72614 8.85439C8.89129 7.60023 10.384 7.80403 11.1783 9.29648C11.4596 9.8295 11.7006 10.3845 12.0004 10.905C12.6649 12.0494 12.8256 13.1186 11.8181 14.1877C11.166 14.8807 11.3483 15.6269 11.9355 16.3041C13.4808 18.107 15.2579 19.6089 17.4986 20.4868C18.5803 20.9069 19.4086 20.8003 19.8876 19.6778C20.549 18.1478 21.572 18.0882 22.8639 18.7717C23.2687 18.9849 23.7107 19.126 24.1341 19.2984C26.1553 20.1262 26.4397 21.9855 24.7522 23.5218C24.157 24.0721 23.4414 24.4711 22.6644 24.6858C21.8875 24.9006 21.0713 24.9251 20.2832 24.7572C17.5437 24.2524 14.97 23.0675 12.7916 21.3082C10.5757 19.5587 8.26392 17.1193 7.00295 14.5577C6.71009 13.9573 6.52585 13.3084 6.45901 12.642Z" fill="currentColor" />
		</g>
		<defs>
			<clipPath id="clip0_884_1731">
				<rect width="32" height="32" fill="currentColor" transform="translate(0.5)" />
			</clipPath>
		</defs>
	</symbol>
	<symbol id="add" xmlns="http://www.w3.org/2000/svg" fill="none" viewBox="0 0 24 24" strokeWidth={1.5} stroke="currentColor" className="size-6">
			<path strokeLinecap="round" strokeLinejoin="round" d="M12 4.5v15m7.5-7.5h-15" />
	</symbol>
</svg>
